# xmcd
#
# Track frame offsets:
#	150
#	11335
#	28564
#	40895
#	51256
#
# Disc length: 924 seconds
#
# Revision: 1
# Processed by: cddbd v1.5.2PL0 Copyright (c) Steve Scherf et al.
# Submitted via: audiograbber 1.83.01
#
DISCID=33039a05
DTITLE=dusty stray - dusty stray
DYEAR=2007
DGENRE=Amerricana
TTITLE0=winter's day
TTITLE1=hard times
TTITLE2=other way
TTITLE3=cindy in the well
TTITLE4=down below
EXTD=promo disc\nwww.dustystray.com
EXTT0=
EXTT1=
EXTT2=
EXTT3=
EXTT4=
PLAYORDER=
